<?xml version="1.0" encoding="UTF-8" standalone="no"?>
<!-- Created with Inkscape (http://www.inkscape.org/) -->
<svg id="svg2" xmlns:rdf="http://www.w3.org/1999/02/22-rdf-syntax-ns#" xmlns="http://www.w3.org/2000/svg" viewBox="0 0 263.18 263.18" version="1.1" xmlns:cc="http://creativecommons.org/ns#" xmlns:dc="http://purl.org/dc/elements/1.1/">
	<metadata id="metadata7">
		<rdf:RDF>
			<cc:Work rdf:about="">
				<dc:format>image/svg+xml</dc:format>
				<dc:type rdf:resource="http://purl.org/dc/dcmitype/StillImage"/>
				<dc:title/>
			</cc:Work>
		</rdf:RDF>
	</metadata>
	<g id="layer1" transform="translate(-153.10832,-193.3004)">
		<rect id="rect2985" height="263.18" width="263.18" y="193.3" x="153.11" fill="#FF0"/>
		<path id="path2987" stroke-linejoin="miter" d="m284.71,202.67c-2.9228,0-38,60.752-36.539,63.284,0.55739,0.96542,11.126,1.5497,24.045,1.7787v43.525c0,2.8298,2.2706,5.1004,5.1004,5.1004h14.765c2.8298,0,5.1004-2.2706,5.1004-5.1004v-43.525c12.928-0.22872,23.487-0.81281,24.045-1.7787,1.4614-2.5312-33.594-63.284-36.517-63.284z" stroke-dashoffset="0" stroke="#1a1a1a" stroke-linecap="butt" stroke-miterlimit="4" onclick='godir(&quot;forwards&quot;)' stroke-dasharray="none" stroke-width="1.37153661" fill="#c83737"/>
		<path id="path2992" stroke-linejoin="miter" d="m284.69,447.12c2.9228,0,38-60.752,36.539-63.284-0.55739-0.96542-11.126-1.5497-24.045-1.7787v-43.525c0-2.8298-2.2706-5.1004-5.1004-5.1004h-14.765c-2.8298,0-5.1004,2.2706-5.1004,5.1004v43.525c-12.928,0.22872-23.487,0.81281-24.045,1.7787-1.4614,2.5312,33.594,63.284,36.517,63.284z" stroke-dashoffset="0" stroke="#1a1a1a" stroke-linecap="butt" stroke-miterlimit="4" onclick='godir(&quot;backwards&quot;)' stroke-dasharray="none" stroke-width="1.37153661" fill="#c83737"/>
		<path id="path3000" stroke-linejoin="miter" d="m414.37,324.9c0-2.9228-60.752-38-63.284-36.539-0.96542,0.55739-1.5497,11.126-1.7787,24.045h-43.525c-2.8298,0-5.1004,2.2706-5.1004,5.1004v14.765c0,2.8298,2.2706,5.1004,5.1004,5.1004h43.525c0.22872,12.928,0.81281,23.487,1.7787,24.045,2.5312,1.4614,63.284-33.594,63.284-36.517z" stroke-dashoffset="0" stroke="#1a1a1a" stroke-linecap="butt" stroke-miterlimit="4" onclick='godir(&quot;right&quot;)' stroke-dasharray="none" stroke-width="1.37153661" fill="#c83737"/>
		<path id="path3002" stroke-linejoin="miter" d="m154.2,324.88c0,2.9228,60.752,38,63.284,36.539,0.96542-0.55739,1.5497-11.126,1.7787-24.045h43.525c2.8298,0,5.1004-2.2706,5.1004-5.1004v-14.765c0-2.8298-2.2706-5.1004-5.1004-5.1004h-43.525c-0.22872-12.928-0.81281-23.487-1.7787-24.045-2.5312-1.4614-63.284,33.594-63.284,36.517z" stroke-dashoffset="0" stroke="#1a1a1a" stroke-linecap="butt" stroke-miterlimit="4" onclick='godir(&quot;left&quot;)' stroke-dasharray="none" stroke-width="1.37153661" fill="#c83737"/>
	</g>
</svg>
